<svg width="2450" height="2450" viewBox="0 0 2450 2450" fill="none" xmlns="http://www.w3.org/2000/svg">
<g clip-path="url(#clip0_8750_18619)">
<path d="M986.961 1083.15L986.905 1083.2L986.852 1083.25L986.705 1083.4C986.328 1083.72 985.878 1083.9 985.43 1083.94C984.963 1083.99 984.532 1083.87 984.192 1083.65L984.189 1083.65L951.895 1062.68L951.894 1062.68C950.557 1061.82 948.993 1061.38 947.407 1061.42C945.823 1061.45 944.284 1061.95 942.973 1062.84L942.972 1062.84L909.714 1085.26L909.714 1085.26L909.703 1085.27C909.277 1085.56 908.794 1085.69 908.338 1085.67C907.886 1085.65 907.486 1085.48 907.184 1085.21C906.882 1084.95 906.671 1084.58 906.597 1084.15C906.522 1083.71 906.59 1083.23 906.824 1082.78L906.825 1082.78L946.919 1005.18L946.966 1005.09L947.006 1005C947.182 1004.59 947.474 1004.24 947.846 1003.98C948.218 1003.72 948.639 1003.58 949.048 1003.57C949.456 1003.55 949.831 1003.65 950.138 1003.84C950.444 1004.03 950.686 1004.3 950.834 1004.64L950.854 1004.68L950.875 1004.72L987.554 1080.6C987.555 1080.6 987.555 1080.61 987.556 1080.61C987.732 1080.98 987.793 1081.42 987.694 1081.89C987.595 1082.36 987.341 1082.81 986.961 1083.15Z" fill="#1C3F60" stroke="#1C3F60" stroke-width="6"/>
</g>
<path d="M623.564 1325.17L544.454 1121.67C543.676 1119.59 540.03 1119.59 539.252 1121.67L460.404 1325.17C459.622 1326.73 460.662 1328.29 463.006 1328.29H498.656C499.695 1328.29 500.997 1327.78 501.258 1326.73L541.851 1210.67L582.968 1326.73C583.229 1327.78 584.531 1328.29 585.312 1328.29H621.223C623.044 1328.29 624.346 1326.73 623.564 1325.17Z" fill="#1C3F60"/>
<path d="M811.694 1278.06H851.509V1122.45C851.509 1121.41 850.459 1120.11 848.626 1120.11H814.055C813.005 1120.11 811.694 1120.89 811.172 1121.68L739.669 1274.16L664.5 1121.68C664.239 1120.89 662.667 1120.11 661.878 1120.11H626.785C624.945 1120.11 624.163 1121.41 624.163 1122.45V1325.95C624.163 1326.98 624.945 1328.29 626.785 1328.29H661.356C662.928 1328.29 664.239 1326.98 664.239 1325.95V1209.1L721.072 1318.4C721.333 1319.18 722.905 1319.96 723.695 1319.96H755.911C756.694 1319.96 758.005 1319.18 758.266 1318.4L811.694 1211.97V1278.06Z" fill="#1C3F60" fill-opacity="0.7"/>
<path d="M948.142 1127.38V1225.07C948.142 1404.17 812.464 1518.14 655.071 1518.14C497.678 1518.14 361.998 1390.6 362 1225.07C362.002 1059.54 497.681 932 655.071 932C732.231 932 804.173 962.653 857.469 1013.41" stroke="#1C3F60" stroke-width="35" stroke-linecap="round"/>
<path d="M1230.34 1313.27L1161.44 1135.37C1160.75 1133.54 1157.58 1133.54 1156.9 1135.37L1088.22 1313.27C1087.54 1314.63 1088.45 1316 1090.49 1316H1121.54C1122.45 1316 1123.58 1315.55 1123.81 1314.63L1159.17 1213.17L1194.98 1314.63C1195.21 1315.55 1196.34 1316 1197.02 1316H1228.3C1229.89 1316 1231.02 1314.63 1230.34 1313.27Z" fill="#1C3F60"/>
<path d="M1371.32 1134H1341.86C1340.27 1134 1339.36 1135.14 1339.36 1136.05V1255.26C1339.36 1273.68 1322.59 1282.56 1305.59 1282.56C1288.82 1282.56 1273.86 1273 1271.81 1255.03V1166.99H1237.59V1255.26C1237.59 1292.79 1268.19 1316 1305.59 1316C1344.12 1316 1373.59 1293.71 1373.59 1255.26V1136.05C1373.59 1135.14 1372.46 1134 1371.32 1134Z" fill="#1C3F60"/>
<path d="M1518.65 1167.44V1136.05C1518.65 1135.14 1517.74 1134 1516.15 1134H1486.69C1441.58 1134 1380.38 1147.2 1380.38 1225C1380.38 1305.76 1442.26 1316 1486.69 1316H1516.15C1517.74 1316 1518.65 1314.86 1518.65 1313.95V1202.48H1449.06V1237.29H1483.96V1282.78C1444.53 1284.83 1415.29 1268.23 1415.29 1225C1415.29 1168.81 1461.98 1166.53 1483.96 1167.44H1518.65Z" fill="#1C3F60"/>
<path d="M1687.96 1272.09H1722.41V1136.05C1722.41 1135.14 1721.5 1134 1719.92 1134H1690C1689.09 1134 1687.96 1134.68 1687.51 1135.37L1625.63 1268.68L1560.57 1135.37C1560.35 1134.68 1558.99 1134 1558.31 1134H1527.94C1526.34 1134 1525.67 1135.14 1525.67 1136.05V1313.95C1525.67 1314.86 1526.34 1316 1527.94 1316H1557.85C1559.21 1316 1560.35 1314.86 1560.35 1313.95V1211.8L1609.53 1307.35C1609.76 1308.04 1611.12 1308.72 1611.8 1308.72H1639.68C1640.36 1308.72 1641.49 1308.04 1641.72 1307.35L1687.96 1214.31V1272.09Z" fill="#1C3F60" fill-opacity="0.7"/>
<path d="M1874.72 1313.27L1805.82 1135.37C1805.13 1133.54 1801.96 1133.54 1801.28 1135.37L1732.6 1313.27C1731.92 1314.63 1732.83 1316 1734.87 1316H1765.92C1766.83 1316 1767.96 1315.55 1768.19 1314.63L1803.55 1213.17L1839.36 1314.63C1839.59 1315.55 1840.72 1316 1841.4 1316H1872.68C1874.27 1316 1875.4 1314.63 1874.72 1313.27Z" fill="#1C3F60" fill-opacity="0.7"/>
<path d="M1979.89 1282.1H1881.97V1313.95C1881.97 1314.86 1883.1 1316 1884.46 1316H1979.89C1981.48 1316 1982.38 1314.86 1982.38 1313.95V1284.38C1982.38 1283.24 1981.48 1282.1 1979.89 1282.1ZM1916.65 1247.29V1136.05C1916.65 1135.14 1915.74 1134 1914.38 1134H1884.46C1883.1 1134 1881.97 1135.14 1881.97 1136.05V1247.29H1916.65Z" fill="#1C3F60" fill-opacity="0.7"/>
<path d="M2085.51 1282.1H1987.59V1313.95C1987.59 1314.86 1988.72 1316 1990.08 1316H2085.51C2087.1 1316 2088 1314.86 2088 1313.95V1284.38C2088 1283.24 2087.1 1282.1 2085.51 1282.1ZM2022.27 1247.29V1136.05C2022.27 1135.14 2021.36 1134 2020 1134H1990.08C1988.72 1134 1987.59 1135.14 1987.59 1136.05V1247.29H2022.27Z" fill="#1C3F60" fill-opacity="0.7"/>
<defs>
<clipPath id="clip0_8750_18619">
<rect width="124.827" height="119.399" fill="white" transform="translate(861.306 1074.54) rotate(-45)"/>
</clipPath>
</defs>
</svg>
