<svg width="2450" height="2450" viewBox="0 0 2450 2450" fill="none" xmlns="http://www.w3.org/2000/svg">
<g clip-path="url(#clip0_8750_18669)">
<path d="M1770 993.5L1769.95 993.55L1769.89 993.603L1769.6 993.898C1768.67 994.701 1767.54 995.183 1766.37 995.29C1765.19 995.399 1764.05 995.113 1763.12 994.507L1763.11 994.505L1710.11 960.094L1710.11 960.093C1708.25 958.885 1706.06 958.279 1703.84 958.328C1701.61 958.378 1699.44 959.079 1697.59 960.327L1697.59 960.327L1643 997.129L1643 997.129L1642.99 997.136C1641.96 997.839 1640.76 998.178 1639.59 998.125C1638.42 998.072 1637.34 997.636 1636.51 996.906C1635.68 996.176 1635.11 995.174 1634.92 994.038C1634.72 992.898 1634.91 991.68 1635.48 990.578L1635.48 990.575L1701.28 863.225L1701.33 863.134L1701.37 863.041C1701.8 862.044 1702.51 861.176 1703.42 860.55C1704.32 859.923 1705.36 859.575 1706.41 859.532C1707.45 859.489 1708.44 859.75 1709.28 860.263C1710.12 860.775 1710.77 861.525 1711.18 862.429L1711.2 862.474L1711.22 862.518L1771.42 987.06C1771.42 987.061 1771.42 987.062 1771.42 987.063C1771.9 988.064 1772.04 989.234 1771.8 990.403C1771.55 991.574 1770.92 992.667 1770 993.5Z" fill="#1C3F60" stroke="#1C3F60" stroke-width="6"/>
</g>
<path d="M1172.29 1389.29L1042.45 1055.3C1041.17 1051.89 1035.19 1051.89 1033.91 1055.3L904.504 1389.29C903.221 1391.85 904.927 1394.42 908.775 1394.42H967.285C968.991 1394.42 971.127 1393.56 971.556 1391.85L1038.18 1201.37L1105.66 1391.85C1106.09 1393.56 1108.23 1394.42 1109.51 1394.42H1168.45C1171.44 1394.42 1173.57 1391.85 1172.29 1389.29Z" fill="#1C3F60"/>
<path d="M1481.06 1311.97H1546.4V1056.58C1546.4 1054.87 1544.68 1052.74 1541.67 1052.74H1484.93C1483.21 1052.74 1481.06 1054.02 1480.2 1055.3L1362.85 1305.57L1239.47 1055.3C1239.05 1054.02 1236.47 1052.74 1235.17 1052.74H1177.58C1174.56 1052.74 1173.27 1054.87 1173.27 1056.58V1390.56C1173.27 1392.26 1174.56 1394.4 1177.58 1394.4H1234.31C1236.89 1394.4 1239.05 1392.26 1239.05 1390.56V1198.79L1332.32 1378.17C1332.75 1379.46 1335.33 1380.73 1336.63 1380.73H1389.5C1390.79 1380.73 1392.94 1379.46 1393.37 1378.17L1481.06 1203.5V1311.97Z" fill="#1C3F60" fill-opacity="0.7"/>
<path d="M1705 1064.67V1225C1705 1518.94 1482.32 1706 1224 1706C965.681 1706 742.996 1496.68 743 1225C743.004 953.322 965.685 744 1224 744C1350.64 744 1468.71 794.309 1556.18 877.611" stroke="#1C3F60" stroke-width="35" stroke-linecap="round"/>
<defs>
<clipPath id="clip0_8750_18669">
<rect width="204.87" height="195.963" fill="white" transform="translate(1562.48 977.94) rotate(-45)"/>
</clipPath>
</defs>
</svg>
