<svg width="2450" height="2450" viewBox="0 0 2450 2450" fill="none" xmlns="http://www.w3.org/2000/svg">
<g clip-path="url(#clip0_8750_18617)">
<path d="M1697.99 808.164L1697.94 808.215L1697.88 808.268L1697.63 808.518C1696.88 809.17 1695.95 809.561 1695.01 809.647C1694.05 809.736 1693.13 809.503 1692.38 809.015L1692.38 809.013L1645.76 778.749L1645.76 778.748C1644.06 777.646 1642.07 777.093 1640.04 777.138C1638.01 777.183 1636.04 777.822 1634.35 778.957L1634.35 778.958L1586.34 811.324L1586.34 811.324L1586.33 811.332C1585.49 811.907 1584.5 812.182 1583.55 812.139C1582.6 812.096 1581.74 811.743 1581.07 811.156C1580.4 810.57 1579.95 809.763 1579.79 808.844C1579.63 807.922 1579.78 806.93 1580.25 806.029L1580.25 806.026L1638.12 694.023L1638.17 693.933L1638.21 693.839C1638.56 693.025 1639.14 692.314 1639.88 691.801C1640.62 691.289 1641.47 691.006 1642.32 690.971C1643.17 690.935 1643.97 691.148 1644.64 691.56C1645.32 691.972 1645.85 692.576 1646.17 693.304L1646.19 693.349L1646.21 693.393L1699.16 802.925C1699.16 802.926 1699.16 802.927 1699.16 802.928C1699.54 803.734 1699.66 804.682 1699.46 805.634C1699.26 806.589 1698.75 807.482 1697.99 808.164Z" fill="#1C3F60" stroke="#1C3F60" stroke-width="6"/>
</g>
<path d="M1172.56 1156.53L1058.36 862.785C1057.24 859.784 1051.98 859.784 1050.86 862.785L937.041 1156.53C935.913 1158.78 937.413 1161.03 940.797 1161.03H992.256C993.757 1161.03 995.635 1160.28 996.013 1158.78L1054.61 991.253L1113.96 1158.78C1114.33 1160.28 1116.21 1161.03 1117.34 1161.03H1169.18C1171.81 1161.03 1173.68 1158.78 1172.56 1156.53Z" fill="#1C3F60"/>
<path d="M1444.11 1088.52H1501.58V863.911C1501.58 862.405 1500.07 860.534 1497.42 860.534H1447.52C1446 860.534 1444.11 861.657 1443.36 862.789L1340.15 1082.89L1231.64 862.789C1231.27 861.657 1229 860.534 1227.86 860.534H1177.2C1174.55 860.534 1173.42 862.405 1173.42 863.911V1157.64C1173.42 1159.14 1174.55 1161.02 1177.2 1161.02H1227.11C1229.38 1161.02 1231.27 1159.14 1231.27 1157.64V988.986L1313.3 1146.75C1313.68 1147.88 1315.95 1149 1317.09 1149H1363.59C1364.72 1149 1366.61 1147.88 1366.99 1146.75L1444.11 993.121V1088.52Z" fill="#1C3F60" fill-opacity="0.7"/>
<path d="M1641.07 871.023V1012.03C1641.07 1270.55 1445.22 1435.07 1218.03 1435.07C990.845 1435.07 794.997 1250.97 795 1012.03C795.003 773.096 990.849 589 1218.03 589C1329.41 589 1433.26 633.247 1510.19 706.509" stroke="#1C3F60" stroke-width="35" stroke-linecap="round"/>
<path d="M795.535 1854.77L713.949 1644.62C713.14 1642.46 709.384 1642.46 708.582 1644.62L627.263 1854.77C626.461 1856.39 627.53 1858 629.95 1858H666.716C667.785 1858 669.129 1857.46 669.396 1856.39L711.262 1736.52L753.669 1856.39C753.937 1857.46 755.28 1858 756.082 1858H793.115C795 1858 796.337 1856.39 795.535 1854.77Z" fill="#1C3F60"/>
<path d="M962.453 1643H927.565C925.687 1643 924.61 1644.34 924.61 1645.42V1786.24C924.61 1808.01 904.754 1818.49 884.623 1818.49C864.766 1818.49 847.055 1807.21 844.635 1785.98V1681.97H804.113V1786.24C804.113 1830.59 840.344 1858 884.623 1858C930.245 1858 965.14 1831.66 965.14 1786.24V1645.42C965.14 1644.34 963.796 1643 962.453 1643Z" fill="#1C3F60"/>
<path d="M1136.89 1682.5V1645.42C1136.89 1644.34 1135.81 1643 1133.93 1643H1099.04C1045.64 1643 973.179 1658.59 973.179 1750.5C973.179 1845.91 1046.44 1858 1099.04 1858H1133.93C1135.81 1858 1136.89 1856.65 1136.89 1855.58V1723.89H1054.5V1765.01H1095.82V1818.76C1049.13 1821.18 1014.51 1801.56 1014.51 1750.5C1014.51 1684.12 1069.8 1681.43 1095.82 1682.5H1136.89Z" fill="#1C3F60"/>
<path d="M1337.35 1806.13H1378.15V1645.42C1378.15 1644.34 1377.07 1643 1375.19 1643H1339.77C1338.69 1643 1337.35 1643.81 1336.81 1644.62L1263.55 1802.1L1186.53 1644.62C1186.26 1643.81 1184.65 1643 1183.84 1643H1147.88C1146 1643 1145.2 1644.34 1145.2 1645.42V1855.58C1145.2 1856.65 1146 1858 1147.88 1858H1183.31C1184.92 1858 1186.26 1856.65 1186.26 1855.58V1734.91L1244.49 1847.79C1244.76 1848.6 1246.37 1849.4 1247.18 1849.4H1280.19C1280.99 1849.4 1282.34 1848.6 1282.6 1847.79L1337.35 1737.87V1806.13Z" fill="#1C3F60" fill-opacity="0.7"/>
<path d="M1558.48 1854.77L1476.89 1644.62C1476.09 1642.46 1472.33 1642.46 1471.53 1644.62L1390.21 1854.77C1389.41 1856.39 1390.48 1858 1392.9 1858H1429.66C1430.73 1858 1432.07 1857.46 1432.34 1856.39L1474.21 1736.52L1516.61 1856.39C1516.88 1857.46 1518.23 1858 1519.03 1858H1556.06C1557.95 1858 1559.28 1856.39 1558.48 1854.77Z" fill="#1C3F60" fill-opacity="0.7"/>
<path d="M1683 1817.96H1567.06V1855.58C1567.06 1856.65 1568.4 1858 1570.01 1858H1683C1684.88 1858 1685.94 1856.65 1685.94 1855.58V1820.65C1685.94 1819.3 1684.88 1817.96 1683 1817.96ZM1608.12 1776.83V1645.42C1608.12 1644.34 1607.05 1643 1605.43 1643H1570.01C1568.4 1643 1567.06 1644.34 1567.06 1645.42V1776.83H1608.12Z" fill="#1C3F60" fill-opacity="0.7"/>
<path d="M1808.05 1817.96H1692.11V1855.58C1692.11 1856.65 1693.46 1858 1695.07 1858H1808.05C1809.93 1858 1811 1856.65 1811 1855.58V1820.65C1811 1819.3 1809.93 1817.96 1808.05 1817.96ZM1733.18 1776.83V1645.42C1733.18 1644.34 1732.1 1643 1730.49 1643H1695.07C1693.46 1643 1692.11 1644.34 1692.11 1645.42V1776.83H1733.18Z" fill="#1C3F60" fill-opacity="0.7"/>
<defs>
<clipPath id="clip0_8750_18617">
<rect width="180.181" height="172.347" fill="white" transform="translate(1515.72 794.748) rotate(-45)"/>
</clipPath>
</defs>
</svg>
