<svg width="1787" height="655" viewBox="0 0 1787 655" fill="none" xmlns="http://www.w3.org/2000/svg">
<g clip-path="url(#clip0_9021_6948)">
<path d="M655.461 185.58L655.405 185.63L655.352 185.683L655.205 185.83C654.828 186.147 654.378 186.331 653.93 186.373C653.463 186.415 653.032 186.302 652.692 186.08L652.689 186.078L620.395 165.112L620.394 165.111C619.057 164.244 617.493 163.812 615.907 163.847C614.323 163.882 612.784 164.381 611.473 165.264L611.472 165.265L578.214 187.688L578.214 187.688L578.203 187.696C577.777 187.985 577.294 188.116 576.838 188.096C576.386 188.076 575.986 187.908 575.684 187.643C575.382 187.378 575.171 187.01 575.097 186.578C575.022 186.143 575.09 185.658 575.324 185.208L575.325 185.205L615.419 107.611L615.466 107.521L615.506 107.427C615.682 107.021 615.974 106.664 616.346 106.406C616.718 106.148 617.139 106.011 617.548 105.994C617.956 105.977 618.331 106.079 618.638 106.268C618.944 106.455 619.186 106.729 619.334 107.064L619.354 107.108L619.375 107.152L656.054 183.032C656.055 183.033 656.055 183.034 656.056 183.035C656.232 183.405 656.293 183.853 656.194 184.319C656.095 184.788 655.841 185.235 655.461 185.58Z" fill="#1C3F60" stroke="#1C3F60" stroke-width="6"/>
</g>
<path d="M292.064 427.601L212.954 224.102C212.176 222.023 208.53 222.023 207.752 224.102L128.904 427.601C128.122 429.161 129.162 430.724 131.506 430.724H167.156C168.195 430.724 169.497 430.204 169.758 429.161L210.351 313.103L251.468 429.161C251.729 430.204 253.031 430.724 253.812 430.724H289.723C291.544 430.724 292.846 429.161 292.064 427.601Z" fill="#1C3F60"/>
<path d="M480.194 380.491H520.01V224.882C520.01 223.839 518.959 222.543 517.126 222.543H482.555C481.505 222.543 480.194 223.321 479.672 224.105L408.169 376.59L333 224.105C332.739 223.321 331.167 222.543 330.378 222.543H295.285C293.446 222.543 292.663 223.839 292.663 224.882V428.375C292.663 429.412 293.446 430.714 295.285 430.714H329.856C331.428 430.714 332.739 429.412 332.739 428.375V311.532L389.573 420.825C389.833 421.61 391.405 422.387 392.195 422.387H424.411C425.194 422.387 426.505 421.61 426.766 420.825L480.194 314.397V380.491Z" fill="#1C3F60" fill-opacity="0.7"/>
<path d="M616.642 229.809V327.5C616.642 506.599 480.964 620.571 323.571 620.571C166.178 620.571 30.4976 493.032 30.5 327.5C30.5024 161.968 166.181 34.4287 323.571 34.4287C400.731 34.4287 472.673 65.082 525.969 115.837" stroke="#1C3F60" stroke-width="35" stroke-linecap="round"/>
<path d="M898.844 415.698L829.937 237.797C829.253 235.973 826.081 235.973 825.404 237.797L756.722 415.698C756.045 417.063 756.948 418.429 758.992 418.429H790.044C790.947 418.429 792.082 417.975 792.308 417.063L827.667 315.597L863.484 417.063C863.71 417.975 864.845 418.429 865.522 418.429H896.8C898.392 418.429 899.521 417.063 898.844 415.698Z" fill="#1C3F60"/>
<path d="M1039.82 236.432H1010.36C1008.77 236.432 1007.86 237.565 1007.86 238.477V357.687C1007.86 376.112 991.089 384.984 974.087 384.984C957.316 384.984 942.357 375.432 940.313 357.461V269.417H906.088V357.687C906.088 395.222 936.689 418.429 974.087 418.429C1012.62 418.429 1042.09 396.134 1042.09 357.687V238.477C1042.09 237.565 1040.96 236.432 1039.82 236.432Z" fill="#1C3F60"/>
<path d="M1187.15 269.87V238.477C1187.15 237.565 1186.24 236.432 1184.65 236.432H1155.19C1110.08 236.432 1048.88 249.627 1048.88 327.427C1048.88 408.191 1110.76 418.429 1155.19 418.429H1184.65C1186.24 418.429 1187.15 417.29 1187.15 416.383V304.906H1117.56V339.716H1152.46V385.211C1113.03 387.262 1083.79 370.656 1083.79 327.427C1083.79 271.236 1130.48 268.964 1152.46 269.87H1187.15Z" fill="#1C3F60"/>
<path d="M1356.46 374.52H1390.91V238.477C1390.91 237.565 1390 236.432 1388.42 236.432H1358.5C1357.59 236.432 1356.46 237.111 1356.01 237.797L1294.13 371.109L1229.07 237.797C1228.85 237.111 1227.49 236.432 1226.81 236.432H1196.44C1194.84 236.432 1194.17 237.565 1194.17 238.477V416.383C1194.17 417.29 1194.84 418.429 1196.44 418.429H1226.35C1227.71 418.429 1228.85 417.29 1228.85 416.383V314.232L1278.03 409.783C1278.26 410.469 1279.62 411.148 1280.3 411.148H1308.18C1308.86 411.148 1309.99 410.469 1310.22 409.783L1356.46 316.736V374.52Z" fill="#1C3F60" fill-opacity="0.7"/>
<path d="M1543.22 415.698L1474.32 237.797C1473.63 235.973 1470.46 235.973 1469.78 237.797L1401.1 415.698C1400.42 417.063 1401.33 418.429 1403.37 418.429H1434.42C1435.33 418.429 1436.46 417.975 1436.69 417.063L1472.05 315.597L1507.86 417.063C1508.09 417.975 1509.22 418.429 1509.9 418.429H1541.18C1542.77 418.429 1543.9 417.063 1543.22 415.698Z" fill="#1C3F60" fill-opacity="0.7"/>
<path d="M1648.39 384.531H1550.47V416.383C1550.47 417.29 1551.6 418.429 1552.96 418.429H1648.39C1649.98 418.429 1650.88 417.29 1650.88 416.383V386.809C1650.88 385.67 1649.98 384.531 1648.39 384.531ZM1585.15 349.722V238.477C1585.15 237.565 1584.24 236.432 1582.88 236.432H1552.96C1551.6 236.432 1550.47 237.565 1550.47 238.477V349.722H1585.15Z" fill="#1C3F60" fill-opacity="0.7"/>
<path d="M1754.01 384.531H1656.09V416.383C1656.09 417.29 1657.22 418.429 1658.58 418.429H1754.01C1755.6 418.429 1756.5 417.29 1756.5 416.383V386.809C1756.5 385.67 1755.6 384.531 1754.01 384.531ZM1690.77 349.722V238.477C1690.77 237.565 1689.86 236.432 1688.5 236.432H1658.58C1657.22 236.432 1656.09 237.565 1656.09 238.477V349.722H1690.77Z" fill="#1C3F60" fill-opacity="0.7"/>
<defs>
<clipPath id="clip0_9021_6948">
<rect width="124.827" height="119.399" fill="white" transform="translate(529.806 176.968) rotate(-45)"/>
</clipPath>
</defs>
</svg>
